# xmcd
#
# Track frame offsets: 
#        150
#        16391
#        36231
#        51165
#        69369
#        85518
#        105251
#        124510
#        143495
#        161779
#        181499
#        207817
#        234175
#        262521
#        277155
#        299716
#        315321
#        329894
#
# Disc length: 4588 seconds
#
# Revision: 4
# Processed by: cddbd v1.5.2PL0 Copyright (c) Steve Scherf et al.
# Submitted via: ExactAudioCopyFreeDBPlugin 1.0
#
DISCID=f711ea12
DTITLE=Scritti Politti - Absolute
DYEAR=2011
DGENRE=Pop
TTITLE0=Wood Beez (Pray Like Aretha Franklin)
TTITLE1=Absolute
TTITLE2=The Word Girl
TTITLE3=Perfect Way
TTITLE4=Hypnotize
TTITLE5=Oh, Patti (Don't Feel Sorry For Loverboy)
TTITLE6=Boom! There She Was
TTITLE7=Umm
TTITLE8=Tinsteltown To The Boogiedown
TTITLE9=Die Alone
TTITLE10=Brushed With Oil, Dusted With Powder
TTITLE11=Skank Bloc Bologna
TTITLE12=The "Sweetest Girl"
TTITLE13=Asylums In Jerusalem
TTITLE14=Jacques Derrida
TTITLE15=She's A Woman
TTITLE16=A Day Late And A Dollar Short
TTITLE17=A Place We Both Belong
EXTD=YEAR: 2011
EXTT0=
EXTT1=
EXTT2=
EXTT3=
EXTT4=
EXTT5=
EXTT6=
EXTT7=
EXTT8=
EXTT9=
EXTT10=
EXTT11=
EXTT12=
EXTT13=
EXTT14=
EXTT15=
EXTT16=
EXTT17=
PLAYORDER=
